<mxfile host="Electron" agent="Mozilla/5.0 (Windows NT 10.0; Win64; x64) AppleWebKit/537.36 (KHTML, like Gecko) draw.io/24.7.17 Chrome/128.0.6613.36 Electron/32.0.1 Safari/537.36" version="24.7.17">
  <diagram name="Sayfa -1" id="0nBmpgbxagvThFLzE1C9">
    <mxGraphModel dx="3306" dy="1709" grid="1" gridSize="10" guides="1" tooltips="1" connect="1" arrows="1" fold="1" page="1" pageScale="1" pageWidth="827" pageHeight="1169" background="#ffffff" math="0" shadow="0">
      <root>
        <mxCell id="0" />
        <mxCell id="1" parent="0" />
        <mxCell id="Sbgd31AxWk2_8hyzhcKL-11" value="OTEL" style="swimlane;fontStyle=0;childLayout=stackLayout;horizontal=1;startSize=30;horizontalStack=0;resizeParent=1;resizeParentMax=0;resizeLast=0;collapsible=1;marginBottom=0;whiteSpace=wrap;html=1;strokeColor=#D0CEE2;align=center;fontColor=#1A1A1A;labelBackgroundColor=none;fillColor=#5D7F99;" parent="1" vertex="1">
          <mxGeometry x="780" y="9" width="166" height="300" as="geometry" />
        </mxCell>
        <mxCell id="Sbgd31AxWk2_8hyzhcKL-12" value="OTELADI" style="text;align=center;verticalAlign=middle;spacingLeft=4;spacingRight=4;overflow=hidden;points=[[0,0.5],[1,0.5]];portConstraint=eastwest;rotatable=0;whiteSpace=wrap;html=1;strokeColor=#D0CEE2;fontColor=#1A1A1A;labelBackgroundColor=none;" parent="Sbgd31AxWk2_8hyzhcKL-11" vertex="1">
          <mxGeometry y="30" width="166" height="30" as="geometry" />
        </mxCell>
        <mxCell id="Sbgd31AxWk2_8hyzhcKL-13" value="YILDIZSAYISI" style="text;align=center;verticalAlign=middle;spacingLeft=4;spacingRight=4;overflow=hidden;points=[[0,0.5],[1,0.5]];portConstraint=eastwest;rotatable=0;whiteSpace=wrap;html=1;strokeColor=#D0CEE2;fontColor=#1A1A1A;labelBackgroundColor=none;" parent="Sbgd31AxWk2_8hyzhcKL-11" vertex="1">
          <mxGeometry y="60" width="166" height="30" as="geometry" />
        </mxCell>
        <mxCell id="Sbgd31AxWk2_8hyzhcKL-93" value="KAPASITE" style="text;align=center;verticalAlign=middle;spacingLeft=4;spacingRight=4;overflow=hidden;points=[[0,0.5],[1,0.5]];portConstraint=eastwest;rotatable=0;whiteSpace=wrap;html=1;strokeColor=#D0CEE2;fontColor=#1A1A1A;labelBackgroundColor=none;" parent="Sbgd31AxWk2_8hyzhcKL-11" vertex="1">
          <mxGeometry y="90" width="166" height="30" as="geometry" />
        </mxCell>
        <mxCell id="Sbgd31AxWk2_8hyzhcKL-15" value="HIZMETLER" style="text;align=center;verticalAlign=middle;spacingLeft=4;spacingRight=4;overflow=hidden;points=[[0,0.5],[1,0.5]];portConstraint=eastwest;rotatable=0;whiteSpace=wrap;html=1;strokeColor=#D0CEE2;fontColor=#1A1A1A;labelBackgroundColor=none;" parent="Sbgd31AxWk2_8hyzhcKL-11" vertex="1">
          <mxGeometry y="120" width="166" height="30" as="geometry" />
        </mxCell>
        <mxCell id="Sbgd31AxWk2_8hyzhcKL-86" value="ODATIPI" style="text;align=center;verticalAlign=middle;spacingLeft=4;spacingRight=4;overflow=hidden;points=[[0,0.5],[1,0.5]];portConstraint=eastwest;rotatable=0;whiteSpace=wrap;html=1;strokeColor=#D0CEE2;fontColor=#1A1A1A;labelBackgroundColor=none;" parent="Sbgd31AxWk2_8hyzhcKL-11" vertex="1">
          <mxGeometry y="150" width="166" height="30" as="geometry" />
        </mxCell>
        <mxCell id="Sbgd31AxWk2_8hyzhcKL-87" value="MUSTERI" style="text;align=center;verticalAlign=middle;spacingLeft=4;spacingRight=4;overflow=hidden;points=[[0,0.5],[1,0.5]];portConstraint=eastwest;rotatable=0;whiteSpace=wrap;html=1;strokeColor=#D0CEE2;fontColor=#1A1A1A;labelBackgroundColor=none;" parent="Sbgd31AxWk2_8hyzhcKL-11" vertex="1">
          <mxGeometry y="180" width="166" height="30" as="geometry" />
        </mxCell>
        <mxCell id="Sbgd31AxWk2_8hyzhcKL-89" value="SALON" style="text;align=center;verticalAlign=middle;spacingLeft=4;spacingRight=4;overflow=hidden;points=[[0,0.5],[1,0.5]];portConstraint=eastwest;rotatable=0;whiteSpace=wrap;html=1;strokeColor=#D0CEE2;fontColor=#1A1A1A;labelBackgroundColor=none;" parent="Sbgd31AxWk2_8hyzhcKL-11" vertex="1">
          <mxGeometry y="210" width="166" height="30" as="geometry" />
        </mxCell>
        <mxCell id="Sbgd31AxWk2_8hyzhcKL-94" value="PERSONEL" style="text;align=center;verticalAlign=middle;spacingLeft=4;spacingRight=4;overflow=hidden;points=[[0,0.5],[1,0.5]];portConstraint=eastwest;rotatable=0;whiteSpace=wrap;html=1;strokeColor=#D0CEE2;fontColor=#1A1A1A;labelBackgroundColor=none;" parent="Sbgd31AxWk2_8hyzhcKL-11" vertex="1">
          <mxGeometry y="240" width="166" height="30" as="geometry" />
        </mxCell>
        <mxCell id="ycozCfA9_tvyJLzH0myJ-18" value="UCRETLENDIRME" style="text;align=center;verticalAlign=middle;spacingLeft=4;spacingRight=4;overflow=hidden;points=[[0,0.5],[1,0.5]];portConstraint=eastwest;rotatable=0;whiteSpace=wrap;html=1;strokeColor=#D0CEE2;fontColor=#1A1A1A;labelBackgroundColor=none;" parent="Sbgd31AxWk2_8hyzhcKL-11" vertex="1">
          <mxGeometry y="270" width="166" height="30" as="geometry" />
        </mxCell>
        <mxCell id="Sbgd31AxWk2_8hyzhcKL-16" value="MUSTERI" style="swimlane;fontStyle=0;childLayout=stackLayout;horizontal=1;startSize=30;horizontalStack=0;resizeParent=1;resizeParentMax=0;resizeLast=0;collapsible=1;marginBottom=0;whiteSpace=wrap;html=1;strokeColor=#D0CEE2;align=center;fontColor=#1A1A1A;labelBackgroundColor=none;fillColor=#5D7F99;" parent="1" vertex="1">
          <mxGeometry x="230" y="449" width="160" height="240" as="geometry" />
        </mxCell>
        <mxCell id="Sbgd31AxWk2_8hyzhcKL-17" value="MUSTERIID" style="text;align=center;verticalAlign=middle;spacingLeft=4;spacingRight=4;overflow=hidden;points=[[0,0.5],[1,0.5]];portConstraint=eastwest;rotatable=0;whiteSpace=wrap;html=1;strokeColor=#D0CEE2;fontColor=#1A1A1A;labelBackgroundColor=none;" parent="Sbgd31AxWk2_8hyzhcKL-16" vertex="1">
          <mxGeometry y="30" width="160" height="30" as="geometry" />
        </mxCell>
        <mxCell id="Sbgd31AxWk2_8hyzhcKL-18" value="MUSTERIADI" style="text;align=center;verticalAlign=middle;spacingLeft=4;spacingRight=4;overflow=hidden;points=[[0,0.5],[1,0.5]];portConstraint=eastwest;rotatable=0;whiteSpace=wrap;html=1;strokeColor=#D0CEE2;fontColor=#1A1A1A;labelBackgroundColor=none;" parent="Sbgd31AxWk2_8hyzhcKL-16" vertex="1">
          <mxGeometry y="60" width="160" height="30" as="geometry" />
        </mxCell>
        <mxCell id="Sbgd31AxWk2_8hyzhcKL-19" value="MUSTERISOYADI" style="text;align=center;verticalAlign=middle;spacingLeft=4;spacingRight=4;overflow=hidden;points=[[0,0.5],[1,0.5]];portConstraint=eastwest;rotatable=0;whiteSpace=wrap;html=1;strokeColor=#D0CEE2;fontColor=#1A1A1A;labelBackgroundColor=none;" parent="Sbgd31AxWk2_8hyzhcKL-16" vertex="1">
          <mxGeometry y="90" width="160" height="30" as="geometry" />
        </mxCell>
        <mxCell id="Sbgd31AxWk2_8hyzhcKL-21" value="MUSTERICİNSİYET" style="text;align=center;verticalAlign=middle;spacingLeft=4;spacingRight=4;overflow=hidden;points=[[0,0.5],[1,0.5]];portConstraint=eastwest;rotatable=0;whiteSpace=wrap;html=1;strokeColor=#D0CEE2;fontColor=#1A1A1A;labelBackgroundColor=none;" parent="Sbgd31AxWk2_8hyzhcKL-16" vertex="1">
          <mxGeometry y="120" width="160" height="30" as="geometry" />
        </mxCell>
        <mxCell id="Sbgd31AxWk2_8hyzhcKL-22" value="MUSTERITELNO" style="text;align=center;verticalAlign=middle;spacingLeft=4;spacingRight=4;overflow=hidden;points=[[0,0.5],[1,0.5]];portConstraint=eastwest;rotatable=0;whiteSpace=wrap;html=1;strokeColor=#D0CEE2;fontColor=#1A1A1A;labelBackgroundColor=none;" parent="Sbgd31AxWk2_8hyzhcKL-16" vertex="1">
          <mxGeometry y="150" width="160" height="30" as="geometry" />
        </mxCell>
        <mxCell id="Sbgd31AxWk2_8hyzhcKL-105" value="MUSTERIODAID" style="text;align=center;verticalAlign=middle;spacingLeft=4;spacingRight=4;overflow=hidden;points=[[0,0.5],[1,0.5]];portConstraint=eastwest;rotatable=0;whiteSpace=wrap;html=1;strokeColor=#D0CEE2;fontColor=#1A1A1A;labelBackgroundColor=none;" parent="Sbgd31AxWk2_8hyzhcKL-16" vertex="1">
          <mxGeometry y="180" width="160" height="30" as="geometry" />
        </mxCell>
        <mxCell id="Sbgd31AxWk2_8hyzhcKL-23" value="MUSTERIDOGUMTARIHI" style="text;align=center;verticalAlign=middle;spacingLeft=4;spacingRight=4;overflow=hidden;points=[[0,0.5],[1,0.5]];portConstraint=eastwest;rotatable=0;whiteSpace=wrap;html=1;strokeColor=#D0CEE2;fontColor=#1A1A1A;labelBackgroundColor=none;" parent="Sbgd31AxWk2_8hyzhcKL-16" vertex="1">
          <mxGeometry y="210" width="160" height="30" as="geometry" />
        </mxCell>
        <mxCell id="Sbgd31AxWk2_8hyzhcKL-24" value="ODATIPI" style="swimlane;fontStyle=0;childLayout=stackLayout;horizontal=1;startSize=30;horizontalStack=0;resizeParent=1;resizeParentMax=0;resizeLast=0;collapsible=1;marginBottom=0;whiteSpace=wrap;html=1;strokeColor=#D0CEE2;align=center;fontColor=#1A1A1A;labelBackgroundColor=none;fillColor=#5D7F99;" parent="1" vertex="1">
          <mxGeometry x="40" y="449" width="140" height="270" as="geometry" />
        </mxCell>
        <mxCell id="Sbgd31AxWk2_8hyzhcKL-25" value="ODAID" style="text;align=center;verticalAlign=middle;spacingLeft=4;spacingRight=4;overflow=hidden;points=[[0,0.5],[1,0.5]];portConstraint=eastwest;rotatable=0;whiteSpace=wrap;html=1;strokeColor=#D0CEE2;fontColor=#1A1A1A;labelBackgroundColor=none;" parent="Sbgd31AxWk2_8hyzhcKL-24" vertex="1">
          <mxGeometry y="30" width="140" height="30" as="geometry" />
        </mxCell>
        <mxCell id="Sbgd31AxWk2_8hyzhcKL-26" value="TEKKISILIK" style="text;align=center;verticalAlign=middle;spacingLeft=4;spacingRight=4;overflow=hidden;points=[[0,0.5],[1,0.5]];portConstraint=eastwest;rotatable=0;whiteSpace=wrap;html=1;strokeColor=#D0CEE2;fontColor=#1A1A1A;labelBackgroundColor=none;" parent="Sbgd31AxWk2_8hyzhcKL-24" vertex="1">
          <mxGeometry y="60" width="140" height="30" as="geometry" />
        </mxCell>
        <mxCell id="Sbgd31AxWk2_8hyzhcKL-27" value="CIFTKISILIK" style="text;align=center;verticalAlign=middle;spacingLeft=4;spacingRight=4;overflow=hidden;points=[[0,0.5],[1,0.5]];portConstraint=eastwest;rotatable=0;whiteSpace=wrap;html=1;strokeColor=#D0CEE2;fontColor=#1A1A1A;labelBackgroundColor=none;" parent="Sbgd31AxWk2_8hyzhcKL-24" vertex="1">
          <mxGeometry y="90" width="140" height="30" as="geometry" />
        </mxCell>
        <mxCell id="Sbgd31AxWk2_8hyzhcKL-29" value="UCKISILIK" style="text;align=center;verticalAlign=middle;spacingLeft=4;spacingRight=4;overflow=hidden;points=[[0,0.5],[1,0.5]];portConstraint=eastwest;rotatable=0;whiteSpace=wrap;html=1;strokeColor=#D0CEE2;fontColor=#1A1A1A;labelBackgroundColor=none;" parent="Sbgd31AxWk2_8hyzhcKL-24" vertex="1">
          <mxGeometry y="120" width="140" height="30" as="geometry" />
        </mxCell>
        <mxCell id="Sbgd31AxWk2_8hyzhcKL-30" value="AILE" style="text;align=center;verticalAlign=middle;spacingLeft=4;spacingRight=4;overflow=hidden;points=[[0,0.5],[1,0.5]];portConstraint=eastwest;rotatable=0;whiteSpace=wrap;html=1;strokeColor=#D0CEE2;fontColor=#1A1A1A;labelBackgroundColor=none;" parent="Sbgd31AxWk2_8hyzhcKL-24" vertex="1">
          <mxGeometry y="150" width="140" height="30" as="geometry" />
        </mxCell>
        <mxCell id="Sbgd31AxWk2_8hyzhcKL-31" value="KRALDAIRESI" style="text;align=center;verticalAlign=middle;spacingLeft=4;spacingRight=4;overflow=hidden;points=[[0,0.5],[1,0.5]];portConstraint=eastwest;rotatable=0;whiteSpace=wrap;html=1;strokeColor=#D0CEE2;fontColor=#1A1A1A;labelBackgroundColor=none;" parent="Sbgd31AxWk2_8hyzhcKL-24" vertex="1">
          <mxGeometry y="180" width="140" height="30" as="geometry" />
        </mxCell>
        <mxCell id="Sbgd31AxWk2_8hyzhcKL-32" value="BALAYIDAIRESI" style="text;align=center;verticalAlign=middle;spacingLeft=4;spacingRight=4;overflow=hidden;points=[[0,0.5],[1,0.5]];portConstraint=eastwest;rotatable=0;whiteSpace=wrap;html=1;strokeColor=#D0CEE2;fontColor=#1A1A1A;labelBackgroundColor=none;" parent="Sbgd31AxWk2_8hyzhcKL-24" vertex="1">
          <mxGeometry y="210" width="140" height="30" as="geometry" />
        </mxCell>
        <mxCell id="Sbgd31AxWk2_8hyzhcKL-92" value="ODASAYILARI" style="text;align=center;verticalAlign=middle;spacingLeft=4;spacingRight=4;overflow=hidden;points=[[0,0.5],[1,0.5]];portConstraint=eastwest;rotatable=0;whiteSpace=wrap;html=1;strokeColor=#D0CEE2;fontColor=#1A1A1A;labelBackgroundColor=none;" parent="Sbgd31AxWk2_8hyzhcKL-24" vertex="1">
          <mxGeometry y="240" width="140" height="30" as="geometry" />
        </mxCell>
        <mxCell id="Sbgd31AxWk2_8hyzhcKL-35" value="SALON" style="swimlane;fontStyle=0;childLayout=stackLayout;horizontal=1;startSize=30;horizontalStack=0;resizeParent=1;resizeParentMax=0;resizeLast=0;collapsible=1;marginBottom=0;whiteSpace=wrap;html=1;strokeColor=#D0CEE2;align=center;fontColor=#1A1A1A;labelBackgroundColor=none;fillColor=#5D7F99;" parent="1" vertex="1">
          <mxGeometry x="900" y="449" width="140" height="210" as="geometry" />
        </mxCell>
        <mxCell id="Sbgd31AxWk2_8hyzhcKL-41" value="SALONID" style="text;align=center;verticalAlign=middle;spacingLeft=4;spacingRight=4;overflow=hidden;points=[[0,0.5],[1,0.5]];portConstraint=eastwest;rotatable=0;whiteSpace=wrap;html=1;strokeColor=#D0CEE2;fontColor=#1A1A1A;labelBackgroundColor=none;" parent="Sbgd31AxWk2_8hyzhcKL-35" vertex="1">
          <mxGeometry y="30" width="140" height="30" as="geometry" />
        </mxCell>
        <mxCell id="Sbgd31AxWk2_8hyzhcKL-36" value="TOPLANTISALONU" style="text;align=center;verticalAlign=middle;spacingLeft=4;spacingRight=4;overflow=hidden;points=[[0,0.5],[1,0.5]];portConstraint=eastwest;rotatable=0;whiteSpace=wrap;html=1;strokeColor=#D0CEE2;fontColor=#1A1A1A;labelBackgroundColor=none;" parent="Sbgd31AxWk2_8hyzhcKL-35" vertex="1">
          <mxGeometry y="60" width="140" height="30" as="geometry" />
        </mxCell>
        <mxCell id="Sbgd31AxWk2_8hyzhcKL-37" value="DUGUNSALONU" style="text;align=center;verticalAlign=middle;spacingLeft=4;spacingRight=4;overflow=hidden;points=[[0,0.5],[1,0.5]];portConstraint=eastwest;rotatable=0;whiteSpace=wrap;html=1;strokeColor=#D0CEE2;fontColor=#1A1A1A;labelBackgroundColor=none;" parent="Sbgd31AxWk2_8hyzhcKL-35" vertex="1">
          <mxGeometry y="90" width="140" height="30" as="geometry" />
        </mxCell>
        <mxCell id="Sbgd31AxWk2_8hyzhcKL-39" value="BALOSALONU" style="text;align=center;verticalAlign=middle;spacingLeft=4;spacingRight=4;overflow=hidden;points=[[0,0.5],[1,0.5]];portConstraint=eastwest;rotatable=0;whiteSpace=wrap;html=1;strokeColor=#D0CEE2;fontColor=#1A1A1A;labelBackgroundColor=none;" parent="Sbgd31AxWk2_8hyzhcKL-35" vertex="1">
          <mxGeometry y="120" width="140" height="30" as="geometry" />
        </mxCell>
        <mxCell id="Sbgd31AxWk2_8hyzhcKL-40" value="DAVETSALONU" style="text;align=center;verticalAlign=middle;spacingLeft=4;spacingRight=4;overflow=hidden;points=[[0,0.5],[1,0.5]];portConstraint=eastwest;rotatable=0;whiteSpace=wrap;html=1;strokeColor=#D0CEE2;fontColor=#1A1A1A;labelBackgroundColor=none;" parent="Sbgd31AxWk2_8hyzhcKL-35" vertex="1">
          <mxGeometry y="150" width="140" height="30" as="geometry" />
        </mxCell>
        <mxCell id="Sbgd31AxWk2_8hyzhcKL-90" value="DAVETLILIST" style="text;align=center;verticalAlign=middle;spacingLeft=4;spacingRight=4;overflow=hidden;points=[[0,0.5],[1,0.5]];portConstraint=eastwest;rotatable=0;whiteSpace=wrap;html=1;strokeColor=#D0CEE2;fontColor=#1A1A1A;labelBackgroundColor=none;" parent="Sbgd31AxWk2_8hyzhcKL-35" vertex="1">
          <mxGeometry y="180" width="140" height="30" as="geometry" />
        </mxCell>
        <mxCell id="Sbgd31AxWk2_8hyzhcKL-42" value="DAVETLILIST" style="swimlane;fontStyle=0;childLayout=stackLayout;horizontal=1;startSize=30;horizontalStack=0;resizeParent=1;resizeParentMax=0;resizeLast=0;collapsible=1;marginBottom=0;whiteSpace=wrap;html=1;strokeColor=#D0CEE2;align=center;fontColor=#1A1A1A;labelBackgroundColor=none;fillColor=#5D7F99;" parent="1" vertex="1">
          <mxGeometry x="900" y="679" width="140" height="120" as="geometry" />
        </mxCell>
        <mxCell id="Sbgd31AxWk2_8hyzhcKL-44" value="DAVETLIID" style="text;align=center;verticalAlign=middle;spacingLeft=4;spacingRight=4;overflow=hidden;points=[[0,0.5],[1,0.5]];portConstraint=eastwest;rotatable=0;whiteSpace=wrap;html=1;strokeColor=#D0CEE2;fontColor=#1A1A1A;labelBackgroundColor=none;" parent="Sbgd31AxWk2_8hyzhcKL-42" vertex="1">
          <mxGeometry y="30" width="140" height="30" as="geometry" />
        </mxCell>
        <mxCell id="Sbgd31AxWk2_8hyzhcKL-43" value="DAVETLIADI" style="text;align=center;verticalAlign=middle;spacingLeft=4;spacingRight=4;overflow=hidden;points=[[0,0.5],[1,0.5]];portConstraint=eastwest;rotatable=0;whiteSpace=wrap;html=1;strokeColor=#D0CEE2;fontColor=#1A1A1A;labelBackgroundColor=none;" parent="Sbgd31AxWk2_8hyzhcKL-42" vertex="1">
          <mxGeometry y="60" width="140" height="30" as="geometry" />
        </mxCell>
        <mxCell id="Sbgd31AxWk2_8hyzhcKL-47" value="DAVETLISOYADI" style="text;align=center;verticalAlign=middle;spacingLeft=4;spacingRight=4;overflow=hidden;points=[[0,0.5],[1,0.5]];portConstraint=eastwest;rotatable=0;whiteSpace=wrap;html=1;strokeColor=#D0CEE2;fontColor=#1A1A1A;labelBackgroundColor=none;" parent="Sbgd31AxWk2_8hyzhcKL-42" vertex="1">
          <mxGeometry y="90" width="140" height="30" as="geometry" />
        </mxCell>
        <mxCell id="Sbgd31AxWk2_8hyzhcKL-48" value="HIZMETLER" style="swimlane;fontStyle=0;childLayout=stackLayout;horizontal=1;startSize=30;horizontalStack=0;resizeParent=1;resizeParentMax=0;resizeLast=0;collapsible=1;marginBottom=0;whiteSpace=wrap;html=1;strokeColor=#D0CEE2;align=center;fontColor=#1A1A1A;labelBackgroundColor=none;fillColor=#5D7F99;" parent="1" vertex="1">
          <mxGeometry x="590" y="449" width="160" height="150" as="geometry" />
        </mxCell>
        <mxCell id="Sbgd31AxWk2_8hyzhcKL-159" value="UCRETLIHIZMETLER" style="text;align=center;verticalAlign=middle;spacingLeft=4;spacingRight=4;overflow=hidden;points=[[0,0.5],[1,0.5]];portConstraint=eastwest;rotatable=0;whiteSpace=wrap;html=1;strokeColor=#D0CEE2;fontColor=#1A1A1A;labelBackgroundColor=none;" parent="Sbgd31AxWk2_8hyzhcKL-48" vertex="1">
          <mxGeometry y="30" width="160" height="30" as="geometry" />
        </mxCell>
        <mxCell id="Sbgd31AxWk2_8hyzhcKL-160" value="UCRETSIZHIZMETLER" style="text;align=center;verticalAlign=middle;spacingLeft=4;spacingRight=4;overflow=hidden;points=[[0,0.5],[1,0.5]];portConstraint=eastwest;rotatable=0;whiteSpace=wrap;html=1;strokeColor=#D0CEE2;fontColor=#1A1A1A;labelBackgroundColor=none;" parent="Sbgd31AxWk2_8hyzhcKL-48" vertex="1">
          <mxGeometry y="60" width="160" height="30" as="geometry" />
        </mxCell>
        <mxCell id="Sbgd31AxWk2_8hyzhcKL-174" value="UCRETLIHIZMETLERID" style="text;align=center;verticalAlign=middle;spacingLeft=4;spacingRight=4;overflow=hidden;points=[[0,0.5],[1,0.5]];portConstraint=eastwest;rotatable=0;whiteSpace=wrap;html=1;strokeColor=#D0CEE2;fontColor=#1A1A1A;labelBackgroundColor=none;" parent="Sbgd31AxWk2_8hyzhcKL-48" vertex="1">
          <mxGeometry y="90" width="160" height="30" as="geometry" />
        </mxCell>
        <mxCell id="Sbgd31AxWk2_8hyzhcKL-173" value="UCRETSIZHIZMETLERID" style="text;align=center;verticalAlign=middle;spacingLeft=4;spacingRight=4;overflow=hidden;points=[[0,0.5],[1,0.5]];portConstraint=eastwest;rotatable=0;whiteSpace=wrap;html=1;strokeColor=#D0CEE2;fontColor=#1A1A1A;labelBackgroundColor=none;" parent="Sbgd31AxWk2_8hyzhcKL-48" vertex="1">
          <mxGeometry y="120" width="160" height="30" as="geometry" />
        </mxCell>
        <mxCell id="Sbgd31AxWk2_8hyzhcKL-52" value="ODASAYILARI" style="swimlane;fontStyle=0;childLayout=stackLayout;horizontal=1;startSize=30;horizontalStack=0;resizeParent=1;resizeParentMax=0;resizeLast=0;collapsible=1;marginBottom=0;whiteSpace=wrap;html=1;strokeColor=#D0CEE2;align=center;fontColor=#1A1A1A;labelBackgroundColor=none;fillColor=#5D7F99;" parent="1" vertex="1">
          <mxGeometry x="40" y="739" width="140" height="420" as="geometry" />
        </mxCell>
        <mxCell id="Sbgd31AxWk2_8hyzhcKL-53" value="TOPLAMODASAYISI" style="text;align=center;verticalAlign=middle;spacingLeft=4;spacingRight=4;overflow=hidden;points=[[0,0.5],[1,0.5]];portConstraint=eastwest;rotatable=0;whiteSpace=wrap;html=1;strokeColor=#D0CEE2;fontColor=#1A1A1A;labelBackgroundColor=none;" parent="Sbgd31AxWk2_8hyzhcKL-52" vertex="1">
          <mxGeometry y="30" width="140" height="30" as="geometry" />
        </mxCell>
        <mxCell id="Sbgd31AxWk2_8hyzhcKL-54" value="TEKLIBOSODASAYISI" style="text;align=center;verticalAlign=middle;spacingLeft=4;spacingRight=4;overflow=hidden;points=[[0,0.5],[1,0.5]];portConstraint=eastwest;rotatable=0;whiteSpace=wrap;html=1;strokeColor=#D0CEE2;fontColor=#1A1A1A;labelBackgroundColor=none;" parent="Sbgd31AxWk2_8hyzhcKL-52" vertex="1">
          <mxGeometry y="60" width="140" height="30" as="geometry" />
        </mxCell>
        <mxCell id="Sbgd31AxWk2_8hyzhcKL-55" value="TEKLIDOLUODASAYISI" style="text;align=center;verticalAlign=middle;spacingLeft=4;spacingRight=4;overflow=hidden;points=[[0,0.5],[1,0.5]];portConstraint=eastwest;rotatable=0;whiteSpace=wrap;html=1;strokeColor=#D0CEE2;fontColor=#1A1A1A;labelBackgroundColor=none;" parent="Sbgd31AxWk2_8hyzhcKL-52" vertex="1">
          <mxGeometry y="90" width="140" height="30" as="geometry" />
        </mxCell>
        <mxCell id="Sbgd31AxWk2_8hyzhcKL-66" value="CIFTLIBOSODASAYISI" style="text;align=center;verticalAlign=middle;spacingLeft=4;spacingRight=4;overflow=hidden;points=[[0,0.5],[1,0.5]];portConstraint=eastwest;rotatable=0;whiteSpace=wrap;html=1;strokeColor=#D0CEE2;fontColor=#1A1A1A;labelBackgroundColor=none;" parent="Sbgd31AxWk2_8hyzhcKL-52" vertex="1">
          <mxGeometry y="120" width="140" height="30" as="geometry" />
        </mxCell>
        <mxCell id="Sbgd31AxWk2_8hyzhcKL-71" value="CIFTLIDOLUODASAYISI" style="text;align=center;verticalAlign=middle;spacingLeft=4;spacingRight=4;overflow=hidden;points=[[0,0.5],[1,0.5]];portConstraint=eastwest;rotatable=0;whiteSpace=wrap;html=1;strokeColor=#D0CEE2;fontColor=#1A1A1A;labelBackgroundColor=none;" parent="Sbgd31AxWk2_8hyzhcKL-52" vertex="1">
          <mxGeometry y="150" width="140" height="30" as="geometry" />
        </mxCell>
        <mxCell id="Sbgd31AxWk2_8hyzhcKL-72" value="UCLUBOSODASAYISI" style="text;align=center;verticalAlign=middle;spacingLeft=4;spacingRight=4;overflow=hidden;points=[[0,0.5],[1,0.5]];portConstraint=eastwest;rotatable=0;whiteSpace=wrap;html=1;strokeColor=#D0CEE2;fontColor=#1A1A1A;labelBackgroundColor=none;" parent="Sbgd31AxWk2_8hyzhcKL-52" vertex="1">
          <mxGeometry y="180" width="140" height="30" as="geometry" />
        </mxCell>
        <mxCell id="Sbgd31AxWk2_8hyzhcKL-73" value="UCLUDOLUODASAYISI" style="text;align=center;verticalAlign=middle;spacingLeft=4;spacingRight=4;overflow=hidden;points=[[0,0.5],[1,0.5]];portConstraint=eastwest;rotatable=0;whiteSpace=wrap;html=1;strokeColor=#D0CEE2;fontColor=#1A1A1A;labelBackgroundColor=none;" parent="Sbgd31AxWk2_8hyzhcKL-52" vertex="1">
          <mxGeometry y="210" width="140" height="30" as="geometry" />
        </mxCell>
        <mxCell id="Sbgd31AxWk2_8hyzhcKL-74" value="AILEBOSODASAYISI" style="text;align=center;verticalAlign=middle;spacingLeft=4;spacingRight=4;overflow=hidden;points=[[0,0.5],[1,0.5]];portConstraint=eastwest;rotatable=0;whiteSpace=wrap;html=1;strokeColor=#D0CEE2;fontColor=#1A1A1A;labelBackgroundColor=none;" parent="Sbgd31AxWk2_8hyzhcKL-52" vertex="1">
          <mxGeometry y="240" width="140" height="30" as="geometry" />
        </mxCell>
        <mxCell id="Sbgd31AxWk2_8hyzhcKL-75" value="AILEDOLUODASAYISI" style="text;align=center;verticalAlign=middle;spacingLeft=4;spacingRight=4;overflow=hidden;points=[[0,0.5],[1,0.5]];portConstraint=eastwest;rotatable=0;whiteSpace=wrap;html=1;strokeColor=#D0CEE2;fontColor=#1A1A1A;labelBackgroundColor=none;" parent="Sbgd31AxWk2_8hyzhcKL-52" vertex="1">
          <mxGeometry y="270" width="140" height="30" as="geometry" />
        </mxCell>
        <mxCell id="Sbgd31AxWk2_8hyzhcKL-76" value="KRALBOSODASAYISI" style="text;align=center;verticalAlign=middle;spacingLeft=4;spacingRight=4;overflow=hidden;points=[[0,0.5],[1,0.5]];portConstraint=eastwest;rotatable=0;whiteSpace=wrap;html=1;strokeColor=#D0CEE2;fontColor=#1A1A1A;labelBackgroundColor=none;" parent="Sbgd31AxWk2_8hyzhcKL-52" vertex="1">
          <mxGeometry y="300" width="140" height="30" as="geometry" />
        </mxCell>
        <mxCell id="Sbgd31AxWk2_8hyzhcKL-77" value="KRALDOLUODASAYISI" style="text;align=center;verticalAlign=middle;spacingLeft=4;spacingRight=4;overflow=hidden;points=[[0,0.5],[1,0.5]];portConstraint=eastwest;rotatable=0;whiteSpace=wrap;html=1;strokeColor=#D0CEE2;fontColor=#1A1A1A;labelBackgroundColor=none;" parent="Sbgd31AxWk2_8hyzhcKL-52" vertex="1">
          <mxGeometry y="330" width="140" height="30" as="geometry" />
        </mxCell>
        <mxCell id="Sbgd31AxWk2_8hyzhcKL-78" value="BALAYIBOSODASAYISI" style="text;align=center;verticalAlign=middle;spacingLeft=4;spacingRight=4;overflow=hidden;points=[[0,0.5],[1,0.5]];portConstraint=eastwest;rotatable=0;whiteSpace=wrap;html=1;strokeColor=#D0CEE2;fontColor=#1A1A1A;labelBackgroundColor=none;" parent="Sbgd31AxWk2_8hyzhcKL-52" vertex="1">
          <mxGeometry y="360" width="140" height="30" as="geometry" />
        </mxCell>
        <mxCell id="Sbgd31AxWk2_8hyzhcKL-79" value="BALAYIDOLUODASAYISI" style="text;align=center;verticalAlign=middle;spacingLeft=4;spacingRight=4;overflow=hidden;points=[[0,0.5],[1,0.5]];portConstraint=eastwest;rotatable=0;whiteSpace=wrap;html=1;strokeColor=#D0CEE2;fontColor=#1A1A1A;labelBackgroundColor=none;" parent="Sbgd31AxWk2_8hyzhcKL-52" vertex="1">
          <mxGeometry y="390" width="140" height="30" as="geometry" />
        </mxCell>
        <mxCell id="Sbgd31AxWk2_8hyzhcKL-80" value="OTOPARK" style="swimlane;fontStyle=0;childLayout=stackLayout;horizontal=1;startSize=30;horizontalStack=0;resizeParent=1;resizeParentMax=0;resizeLast=0;collapsible=1;marginBottom=0;whiteSpace=wrap;html=1;strokeColor=#D0CEE2;align=center;fontColor=#1A1A1A;labelBackgroundColor=none;fillColor=#5D7F99;" parent="1" vertex="1">
          <mxGeometry x="690" y="939" width="140" height="180" as="geometry" />
        </mxCell>
        <mxCell id="Sbgd31AxWk2_8hyzhcKL-81" value="TOPLAMYERSAYISI" style="text;align=center;verticalAlign=middle;spacingLeft=4;spacingRight=4;overflow=hidden;points=[[0,0.5],[1,0.5]];portConstraint=eastwest;rotatable=0;whiteSpace=wrap;html=1;strokeColor=#D0CEE2;fontColor=#1A1A1A;labelBackgroundColor=none;" parent="Sbgd31AxWk2_8hyzhcKL-80" vertex="1">
          <mxGeometry y="30" width="140" height="30" as="geometry" />
        </mxCell>
        <mxCell id="Sbgd31AxWk2_8hyzhcKL-82" value="BOSYERSAYISI" style="text;align=center;verticalAlign=middle;spacingLeft=4;spacingRight=4;overflow=hidden;points=[[0,0.5],[1,0.5]];portConstraint=eastwest;rotatable=0;whiteSpace=wrap;html=1;strokeColor=#D0CEE2;fontColor=#1A1A1A;labelBackgroundColor=none;" parent="Sbgd31AxWk2_8hyzhcKL-80" vertex="1">
          <mxGeometry y="60" width="140" height="30" as="geometry" />
        </mxCell>
        <mxCell id="Sbgd31AxWk2_8hyzhcKL-83" value="DOLUYERSAYISI" style="text;align=center;verticalAlign=middle;spacingLeft=4;spacingRight=4;overflow=hidden;points=[[0,0.5],[1,0.5]];portConstraint=eastwest;rotatable=0;whiteSpace=wrap;html=1;strokeColor=#D0CEE2;fontColor=#1A1A1A;labelBackgroundColor=none;" parent="Sbgd31AxWk2_8hyzhcKL-80" vertex="1">
          <mxGeometry y="90" width="140" height="30" as="geometry" />
        </mxCell>
        <mxCell id="Sbgd31AxWk2_8hyzhcKL-84" value="MUSTERIID" style="text;align=center;verticalAlign=middle;spacingLeft=4;spacingRight=4;overflow=hidden;points=[[0,0.5],[1,0.5]];portConstraint=eastwest;rotatable=0;whiteSpace=wrap;html=1;strokeColor=#D0CEE2;fontColor=#1A1A1A;labelBackgroundColor=none;" parent="Sbgd31AxWk2_8hyzhcKL-80" vertex="1">
          <mxGeometry y="120" width="140" height="30" as="geometry" />
        </mxCell>
        <mxCell id="Sbgd31AxWk2_8hyzhcKL-85" value="ARACPLAKASI" style="text;align=center;verticalAlign=middle;spacingLeft=4;spacingRight=4;overflow=hidden;points=[[0,0.5],[1,0.5]];portConstraint=eastwest;rotatable=0;whiteSpace=wrap;html=1;strokeColor=#D0CEE2;fontColor=#1A1A1A;labelBackgroundColor=none;" parent="Sbgd31AxWk2_8hyzhcKL-80" vertex="1">
          <mxGeometry y="150" width="140" height="30" as="geometry" />
        </mxCell>
        <mxCell id="Sbgd31AxWk2_8hyzhcKL-95" value="PERSONEL" style="swimlane;fontStyle=0;childLayout=stackLayout;horizontal=1;startSize=30;horizontalStack=0;resizeParent=1;resizeParentMax=0;resizeLast=0;collapsible=1;marginBottom=0;whiteSpace=wrap;html=1;strokeColor=#D0CEE2;align=center;fontColor=#1A1A1A;labelBackgroundColor=none;fillColor=#5D7F99;" parent="1" vertex="1">
          <mxGeometry x="1510" y="449" width="140" height="210" as="geometry" />
        </mxCell>
        <mxCell id="Sbgd31AxWk2_8hyzhcKL-96" value="PERSONELID" style="text;align=center;verticalAlign=middle;spacingLeft=4;spacingRight=4;overflow=hidden;points=[[0,0.5],[1,0.5]];portConstraint=eastwest;rotatable=0;whiteSpace=wrap;html=1;strokeColor=#D0CEE2;fontColor=#1A1A1A;labelBackgroundColor=none;" parent="Sbgd31AxWk2_8hyzhcKL-95" vertex="1">
          <mxGeometry y="30" width="140" height="30" as="geometry" />
        </mxCell>
        <mxCell id="Sbgd31AxWk2_8hyzhcKL-98" value="PERSONELADI" style="text;align=center;verticalAlign=middle;spacingLeft=4;spacingRight=4;overflow=hidden;points=[[0,0.5],[1,0.5]];portConstraint=eastwest;rotatable=0;whiteSpace=wrap;html=1;strokeColor=#D0CEE2;fontColor=#1A1A1A;labelBackgroundColor=none;" parent="Sbgd31AxWk2_8hyzhcKL-95" vertex="1">
          <mxGeometry y="60" width="140" height="30" as="geometry" />
        </mxCell>
        <mxCell id="Sbgd31AxWk2_8hyzhcKL-99" value="PERSONELSOYADI" style="text;align=center;verticalAlign=middle;spacingLeft=4;spacingRight=4;overflow=hidden;points=[[0,0.5],[1,0.5]];portConstraint=eastwest;rotatable=0;whiteSpace=wrap;html=1;strokeColor=#D0CEE2;fontColor=#1A1A1A;labelBackgroundColor=none;" parent="Sbgd31AxWk2_8hyzhcKL-95" vertex="1">
          <mxGeometry y="90" width="140" height="30" as="geometry" />
        </mxCell>
        <mxCell id="Sbgd31AxWk2_8hyzhcKL-97" value="PERSONELGOREVI" style="text;align=center;verticalAlign=middle;spacingLeft=4;spacingRight=4;overflow=hidden;points=[[0,0.5],[1,0.5]];portConstraint=eastwest;rotatable=0;whiteSpace=wrap;html=1;strokeColor=#D0CEE2;fontColor=#1A1A1A;labelBackgroundColor=none;" parent="Sbgd31AxWk2_8hyzhcKL-95" vertex="1">
          <mxGeometry y="120" width="140" height="30" as="geometry" />
        </mxCell>
        <mxCell id="Sbgd31AxWk2_8hyzhcKL-106" value="PERSONELTELNO" style="text;align=center;verticalAlign=middle;spacingLeft=4;spacingRight=4;overflow=hidden;points=[[0,0.5],[1,0.5]];portConstraint=eastwest;rotatable=0;whiteSpace=wrap;html=1;strokeColor=#D0CEE2;fontColor=#1A1A1A;labelBackgroundColor=none;" parent="Sbgd31AxWk2_8hyzhcKL-95" vertex="1">
          <mxGeometry y="150" width="140" height="30" as="geometry" />
        </mxCell>
        <mxCell id="Sbgd31AxWk2_8hyzhcKL-107" value="PERSONELCİNSİYETİ" style="text;align=center;verticalAlign=middle;spacingLeft=4;spacingRight=4;overflow=hidden;points=[[0,0.5],[1,0.5]];portConstraint=eastwest;rotatable=0;whiteSpace=wrap;html=1;strokeColor=#D0CEE2;fontColor=#1A1A1A;labelBackgroundColor=none;" parent="Sbgd31AxWk2_8hyzhcKL-95" vertex="1">
          <mxGeometry y="180" width="140" height="30" as="geometry" />
        </mxCell>
        <mxCell id="Sbgd31AxWk2_8hyzhcKL-108" value="ODAUCRETLERI" style="swimlane;fontStyle=0;childLayout=stackLayout;horizontal=1;startSize=30;horizontalStack=0;resizeParent=1;resizeParentMax=0;resizeLast=0;collapsible=1;marginBottom=0;whiteSpace=wrap;html=1;strokeColor=#D0CEE2;align=center;fontColor=#1A1A1A;labelBackgroundColor=none;fillColor=#5D7F99;" parent="1" vertex="1">
          <mxGeometry x="1290" y="719" width="140" height="240" as="geometry" />
        </mxCell>
        <mxCell id="Sbgd31AxWk2_8hyzhcKL-109" value="TEKKISILIKUCRET" style="text;align=center;verticalAlign=middle;spacingLeft=4;spacingRight=4;overflow=hidden;points=[[0,0.5],[1,0.5]];portConstraint=eastwest;rotatable=0;whiteSpace=wrap;html=1;strokeColor=#D0CEE2;fontColor=#1A1A1A;labelBackgroundColor=none;" parent="Sbgd31AxWk2_8hyzhcKL-108" vertex="1">
          <mxGeometry y="30" width="140" height="30" as="geometry" />
        </mxCell>
        <mxCell id="Sbgd31AxWk2_8hyzhcKL-110" value="CIFTKISILIKUCRET" style="text;align=center;verticalAlign=middle;spacingLeft=4;spacingRight=4;overflow=hidden;points=[[0,0.5],[1,0.5]];portConstraint=eastwest;rotatable=0;whiteSpace=wrap;html=1;strokeColor=#D0CEE2;fontColor=#1A1A1A;labelBackgroundColor=none;" parent="Sbgd31AxWk2_8hyzhcKL-108" vertex="1">
          <mxGeometry y="60" width="140" height="30" as="geometry" />
        </mxCell>
        <mxCell id="Sbgd31AxWk2_8hyzhcKL-111" value="UCKISILIKUCRET" style="text;align=center;verticalAlign=middle;spacingLeft=4;spacingRight=4;overflow=hidden;points=[[0,0.5],[1,0.5]];portConstraint=eastwest;rotatable=0;whiteSpace=wrap;html=1;strokeColor=#D0CEE2;fontColor=#1A1A1A;labelBackgroundColor=none;" parent="Sbgd31AxWk2_8hyzhcKL-108" vertex="1">
          <mxGeometry y="90" width="140" height="30" as="geometry" />
        </mxCell>
        <mxCell id="Sbgd31AxWk2_8hyzhcKL-112" value="AILEUCRET" style="text;align=center;verticalAlign=middle;spacingLeft=4;spacingRight=4;overflow=hidden;points=[[0,0.5],[1,0.5]];portConstraint=eastwest;rotatable=0;whiteSpace=wrap;html=1;strokeColor=#D0CEE2;fontColor=#1A1A1A;labelBackgroundColor=none;" parent="Sbgd31AxWk2_8hyzhcKL-108" vertex="1">
          <mxGeometry y="120" width="140" height="30" as="geometry" />
        </mxCell>
        <mxCell id="Sbgd31AxWk2_8hyzhcKL-113" value="KRALUCRET" style="text;align=center;verticalAlign=middle;spacingLeft=4;spacingRight=4;overflow=hidden;points=[[0,0.5],[1,0.5]];portConstraint=eastwest;rotatable=0;whiteSpace=wrap;html=1;strokeColor=#D0CEE2;fontColor=#1A1A1A;labelBackgroundColor=none;" parent="Sbgd31AxWk2_8hyzhcKL-108" vertex="1">
          <mxGeometry y="150" width="140" height="30" as="geometry" />
        </mxCell>
        <mxCell id="Sbgd31AxWk2_8hyzhcKL-115" value="BALAYIUCRET" style="text;align=center;verticalAlign=middle;spacingLeft=4;spacingRight=4;overflow=hidden;points=[[0,0.5],[1,0.5]];portConstraint=eastwest;rotatable=0;whiteSpace=wrap;html=1;strokeColor=#D0CEE2;fontColor=#1A1A1A;labelBackgroundColor=none;" parent="Sbgd31AxWk2_8hyzhcKL-108" vertex="1">
          <mxGeometry y="180" width="140" height="30" as="geometry" />
        </mxCell>
        <mxCell id="Sbgd31AxWk2_8hyzhcKL-114" value="UCKISILIKUCRET" style="text;align=center;verticalAlign=middle;spacingLeft=4;spacingRight=4;overflow=hidden;points=[[0,0.5],[1,0.5]];portConstraint=eastwest;rotatable=0;whiteSpace=wrap;html=1;strokeColor=#D0CEE2;fontColor=#1A1A1A;labelBackgroundColor=none;" parent="Sbgd31AxWk2_8hyzhcKL-108" vertex="1">
          <mxGeometry y="210" width="140" height="30" as="geometry" />
        </mxCell>
        <mxCell id="Sbgd31AxWk2_8hyzhcKL-116" value="UCRETLENDIRME" style="swimlane;fontStyle=0;childLayout=stackLayout;horizontal=1;startSize=30;horizontalStack=0;resizeParent=1;resizeParentMax=0;resizeLast=0;collapsible=1;marginBottom=0;whiteSpace=wrap;html=1;strokeColor=#D0CEE2;align=center;fontColor=#1A1A1A;labelBackgroundColor=none;fillColor=#5D7F99;" parent="1" vertex="1">
          <mxGeometry x="1290" y="449" width="140" height="150" as="geometry" />
        </mxCell>
        <mxCell id="Sbgd31AxWk2_8hyzhcKL-118" value="HIZMETUCRETLERI" style="text;align=center;verticalAlign=middle;spacingLeft=4;spacingRight=4;overflow=hidden;points=[[0,0.5],[1,0.5]];portConstraint=eastwest;rotatable=0;whiteSpace=wrap;html=1;strokeColor=#D0CEE2;fontColor=#1A1A1A;labelBackgroundColor=none;" parent="Sbgd31AxWk2_8hyzhcKL-116" vertex="1">
          <mxGeometry y="30" width="140" height="30" as="geometry" />
        </mxCell>
        <mxCell id="Sbgd31AxWk2_8hyzhcKL-117" value="ODAUCRETLERI" style="text;align=center;verticalAlign=middle;spacingLeft=4;spacingRight=4;overflow=hidden;points=[[0,0.5],[1,0.5]];portConstraint=eastwest;rotatable=0;whiteSpace=wrap;html=1;strokeColor=#D0CEE2;fontColor=#1A1A1A;labelBackgroundColor=none;" parent="Sbgd31AxWk2_8hyzhcKL-116" vertex="1">
          <mxGeometry y="60" width="140" height="30" as="geometry" />
        </mxCell>
        <mxCell id="Sbgd31AxWk2_8hyzhcKL-119" value="KAMPANYALAR" style="text;align=center;verticalAlign=middle;spacingLeft=4;spacingRight=4;overflow=hidden;points=[[0,0.5],[1,0.5]];portConstraint=eastwest;rotatable=0;whiteSpace=wrap;html=1;strokeColor=#D0CEE2;fontColor=#1A1A1A;labelBackgroundColor=none;" parent="Sbgd31AxWk2_8hyzhcKL-116" vertex="1">
          <mxGeometry y="90" width="140" height="30" as="geometry" />
        </mxCell>
        <mxCell id="ycozCfA9_tvyJLzH0myJ-19" value="CHECKOUT" style="text;align=center;verticalAlign=middle;spacingLeft=4;spacingRight=4;overflow=hidden;points=[[0,0.5],[1,0.5]];portConstraint=eastwest;rotatable=0;whiteSpace=wrap;html=1;strokeColor=#D0CEE2;fontColor=#1A1A1A;labelBackgroundColor=none;" parent="Sbgd31AxWk2_8hyzhcKL-116" vertex="1">
          <mxGeometry y="120" width="140" height="30" as="geometry" />
        </mxCell>
        <mxCell id="Sbgd31AxWk2_8hyzhcKL-120" value="HIZMETUCRETLERI" style="swimlane;fontStyle=0;childLayout=stackLayout;horizontal=1;startSize=30;horizontalStack=0;resizeParent=1;resizeParentMax=0;resizeLast=0;collapsible=1;marginBottom=0;whiteSpace=wrap;html=1;strokeColor=#D0CEE2;align=center;fontColor=#1A1A1A;labelBackgroundColor=none;fillColor=#5D7F99;" parent="1" vertex="1">
          <mxGeometry x="1110" y="719" width="140" height="60" as="geometry" />
        </mxCell>
        <mxCell id="Sbgd31AxWk2_8hyzhcKL-141" value="UCRETLIID" style="text;align=center;verticalAlign=middle;spacingLeft=4;spacingRight=4;overflow=hidden;points=[[0,0.5],[1,0.5]];portConstraint=eastwest;rotatable=0;whiteSpace=wrap;html=1;strokeColor=#D0CEE2;fontColor=#1A1A1A;labelBackgroundColor=none;" parent="Sbgd31AxWk2_8hyzhcKL-120" vertex="1">
          <mxGeometry y="30" width="140" height="30" as="geometry" />
        </mxCell>
        <mxCell id="Sbgd31AxWk2_8hyzhcKL-155" value="UCRETSIZHIZMETLER" style="swimlane;fontStyle=0;childLayout=stackLayout;horizontal=1;startSize=30;horizontalStack=0;resizeParent=1;resizeParentMax=0;resizeLast=0;collapsible=1;marginBottom=0;whiteSpace=wrap;html=1;strokeColor=#D0CEE2;align=center;fontColor=#1A1A1A;labelBackgroundColor=none;fillColor=#5D7F99;" parent="1" vertex="1">
          <mxGeometry x="690" y="639" width="140" height="270" as="geometry" />
        </mxCell>
        <mxCell id="Sbgd31AxWk2_8hyzhcKL-177" value="UCRETSIZID" style="text;align=center;verticalAlign=middle;spacingLeft=4;spacingRight=4;overflow=hidden;points=[[0,0.5],[1,0.5]];portConstraint=eastwest;rotatable=0;whiteSpace=wrap;html=1;strokeColor=#D0CEE2;fontColor=#1A1A1A;labelBackgroundColor=none;" parent="Sbgd31AxWk2_8hyzhcKL-155" vertex="1">
          <mxGeometry y="30" width="140" height="30" as="geometry" />
        </mxCell>
        <mxCell id="Sbgd31AxWk2_8hyzhcKL-154" value="SPORSALONU" style="text;align=center;verticalAlign=middle;spacingLeft=4;spacingRight=4;overflow=hidden;points=[[0,0.5],[1,0.5]];portConstraint=eastwest;rotatable=0;whiteSpace=wrap;html=1;strokeColor=#D0CEE2;fontColor=#1A1A1A;labelBackgroundColor=none;" parent="Sbgd31AxWk2_8hyzhcKL-155" vertex="1">
          <mxGeometry y="60" width="140" height="30" as="geometry" />
        </mxCell>
        <mxCell id="Sbgd31AxWk2_8hyzhcKL-151" value="SAUNA" style="text;align=center;verticalAlign=middle;spacingLeft=4;spacingRight=4;overflow=hidden;points=[[0,0.5],[1,0.5]];portConstraint=eastwest;rotatable=0;whiteSpace=wrap;html=1;strokeColor=#D0CEE2;fontColor=#1A1A1A;labelBackgroundColor=none;" parent="Sbgd31AxWk2_8hyzhcKL-155" vertex="1">
          <mxGeometry y="90" width="140" height="30" as="geometry" />
        </mxCell>
        <mxCell id="Sbgd31AxWk2_8hyzhcKL-150" value="HAMAM" style="text;align=center;verticalAlign=middle;spacingLeft=4;spacingRight=4;overflow=hidden;points=[[0,0.5],[1,0.5]];portConstraint=eastwest;rotatable=0;whiteSpace=wrap;html=1;strokeColor=#D0CEE2;fontColor=#1A1A1A;labelBackgroundColor=none;" parent="Sbgd31AxWk2_8hyzhcKL-155" vertex="1">
          <mxGeometry y="120" width="140" height="30" as="geometry" />
        </mxCell>
        <mxCell id="Sbgd31AxWk2_8hyzhcKL-148" value="OTOPARK" style="text;align=center;verticalAlign=middle;spacingLeft=4;spacingRight=4;overflow=hidden;points=[[0,0.5],[1,0.5]];portConstraint=eastwest;rotatable=0;whiteSpace=wrap;html=1;strokeColor=#D0CEE2;fontColor=#1A1A1A;labelBackgroundColor=none;" parent="Sbgd31AxWk2_8hyzhcKL-155" vertex="1">
          <mxGeometry y="150" width="140" height="30" as="geometry" />
        </mxCell>
        <mxCell id="Sbgd31AxWk2_8hyzhcKL-147" value="HAVUZ" style="text;align=center;verticalAlign=middle;spacingLeft=4;spacingRight=4;overflow=hidden;points=[[0,0.5],[1,0.5]];portConstraint=eastwest;rotatable=0;whiteSpace=wrap;html=1;strokeColor=#D0CEE2;fontColor=#1A1A1A;labelBackgroundColor=none;" parent="Sbgd31AxWk2_8hyzhcKL-155" vertex="1">
          <mxGeometry y="180" width="140" height="30" as="geometry" />
        </mxCell>
        <mxCell id="Sbgd31AxWk2_8hyzhcKL-146" value="UTU" style="text;align=center;verticalAlign=middle;spacingLeft=4;spacingRight=4;overflow=hidden;points=[[0,0.5],[1,0.5]];portConstraint=eastwest;rotatable=0;whiteSpace=wrap;html=1;strokeColor=#D0CEE2;fontColor=#1A1A1A;labelBackgroundColor=none;" parent="Sbgd31AxWk2_8hyzhcKL-155" vertex="1">
          <mxGeometry y="210" width="140" height="30" as="geometry" />
        </mxCell>
        <mxCell id="Sbgd31AxWk2_8hyzhcKL-145" value="CAMASIR" style="text;align=center;verticalAlign=middle;spacingLeft=4;spacingRight=4;overflow=hidden;points=[[0,0.5],[1,0.5]];portConstraint=eastwest;rotatable=0;whiteSpace=wrap;html=1;strokeColor=#D0CEE2;fontColor=#1A1A1A;labelBackgroundColor=none;" parent="Sbgd31AxWk2_8hyzhcKL-155" vertex="1">
          <mxGeometry y="240" width="140" height="30" as="geometry" />
        </mxCell>
        <mxCell id="Sbgd31AxWk2_8hyzhcKL-161" value="UCRETLIHIZMETLER" style="swimlane;fontStyle=0;childLayout=stackLayout;horizontal=1;startSize=30;horizontalStack=0;resizeParent=1;resizeParentMax=0;resizeLast=0;collapsible=1;marginBottom=0;whiteSpace=wrap;html=1;strokeColor=#D0CEE2;align=center;fontColor=#1A1A1A;labelBackgroundColor=none;fillColor=#5D7F99;" parent="1" vertex="1">
          <mxGeometry x="510" y="639" width="140" height="150" as="geometry" />
        </mxCell>
        <mxCell id="Sbgd31AxWk2_8hyzhcKL-176" value="UCRETLIID" style="text;align=center;verticalAlign=middle;spacingLeft=4;spacingRight=4;overflow=hidden;points=[[0,0.5],[1,0.5]];portConstraint=eastwest;rotatable=0;whiteSpace=wrap;html=1;strokeColor=#D0CEE2;fontColor=#1A1A1A;labelBackgroundColor=none;" parent="Sbgd31AxWk2_8hyzhcKL-161" vertex="1">
          <mxGeometry y="30" width="140" height="30" as="geometry" />
        </mxCell>
        <mxCell id="Sbgd31AxWk2_8hyzhcKL-163" value="BAR" style="text;align=center;verticalAlign=middle;spacingLeft=4;spacingRight=4;overflow=hidden;points=[[0,0.5],[1,0.5]];portConstraint=eastwest;rotatable=0;whiteSpace=wrap;html=1;strokeColor=#D0CEE2;fontColor=#1A1A1A;labelBackgroundColor=none;" parent="Sbgd31AxWk2_8hyzhcKL-161" vertex="1">
          <mxGeometry y="60" width="140" height="30" as="geometry" />
        </mxCell>
        <mxCell id="Sbgd31AxWk2_8hyzhcKL-164" value="RESTORANT" style="text;align=center;verticalAlign=middle;spacingLeft=4;spacingRight=4;overflow=hidden;points=[[0,0.5],[1,0.5]];portConstraint=eastwest;rotatable=0;whiteSpace=wrap;html=1;strokeColor=#D0CEE2;fontColor=#1A1A1A;labelBackgroundColor=none;" parent="Sbgd31AxWk2_8hyzhcKL-161" vertex="1">
          <mxGeometry y="90" width="140" height="30" as="geometry" />
        </mxCell>
        <mxCell id="Sbgd31AxWk2_8hyzhcKL-167" value="ODASERVISI" style="text;align=center;verticalAlign=middle;spacingLeft=4;spacingRight=4;overflow=hidden;points=[[0,0.5],[1,0.5]];portConstraint=eastwest;rotatable=0;whiteSpace=wrap;html=1;strokeColor=#D0CEE2;fontColor=#1A1A1A;labelBackgroundColor=none;" parent="Sbgd31AxWk2_8hyzhcKL-161" vertex="1">
          <mxGeometry y="120" width="140" height="30" as="geometry" />
        </mxCell>
        <mxCell id="Sbgd31AxWk2_8hyzhcKL-178" style="edgeStyle=orthogonalEdgeStyle;rounded=0;orthogonalLoop=1;jettySize=auto;html=1;exitX=0;exitY=0.5;exitDx=0;exitDy=0;entryX=0;entryY=0.111;entryDx=0;entryDy=0;entryPerimeter=0;strokeColor=#736CA8;align=center;fontColor=default;labelBackgroundColor=none;" parent="1" source="Sbgd31AxWk2_8hyzhcKL-148" target="Sbgd31AxWk2_8hyzhcKL-80" edge="1">
          <mxGeometry relative="1" as="geometry" />
        </mxCell>
        <mxCell id="Sbgd31AxWk2_8hyzhcKL-179" value="KAMPANYALAR" style="swimlane;fontStyle=0;childLayout=stackLayout;horizontal=1;startSize=30;horizontalStack=0;resizeParent=1;resizeParentMax=0;resizeLast=0;collapsible=1;marginBottom=0;whiteSpace=wrap;html=1;strokeColor=#D0CEE2;align=center;fontColor=#1A1A1A;labelBackgroundColor=none;fillColor=#5D7F99;" parent="1" vertex="1">
          <mxGeometry x="1470" y="719" width="140" height="210" as="geometry" />
        </mxCell>
        <mxCell id="Sbgd31AxWk2_8hyzhcKL-180" value="KAMPANYAID" style="text;align=center;verticalAlign=middle;spacingLeft=4;spacingRight=4;overflow=hidden;points=[[0,0.5],[1,0.5]];portConstraint=eastwest;rotatable=0;whiteSpace=wrap;html=1;strokeColor=#D0CEE2;fontColor=#1A1A1A;labelBackgroundColor=none;" parent="Sbgd31AxWk2_8hyzhcKL-179" vertex="1">
          <mxGeometry y="30" width="140" height="30" as="geometry" />
        </mxCell>
        <mxCell id="Sbgd31AxWk2_8hyzhcKL-181" value="COCUKINDIRIM" style="text;align=center;verticalAlign=middle;spacingLeft=4;spacingRight=4;overflow=hidden;points=[[0,0.5],[1,0.5]];portConstraint=eastwest;rotatable=0;whiteSpace=wrap;html=1;strokeColor=#D0CEE2;fontColor=#1A1A1A;labelBackgroundColor=none;" parent="Sbgd31AxWk2_8hyzhcKL-179" vertex="1">
          <mxGeometry y="60" width="140" height="30" as="geometry" />
        </mxCell>
        <mxCell id="Sbgd31AxWk2_8hyzhcKL-182" value="DEVAMLIMUSTERI" style="text;align=center;verticalAlign=middle;spacingLeft=4;spacingRight=4;overflow=hidden;points=[[0,0.5],[1,0.5]];portConstraint=eastwest;rotatable=0;whiteSpace=wrap;html=1;strokeColor=#D0CEE2;fontColor=#1A1A1A;labelBackgroundColor=none;" parent="Sbgd31AxWk2_8hyzhcKL-179" vertex="1">
          <mxGeometry y="90" width="140" height="30" as="geometry" />
        </mxCell>
        <mxCell id="Sbgd31AxWk2_8hyzhcKL-184" value="FAZLAGUNINDIRIMI" style="text;align=center;verticalAlign=middle;spacingLeft=4;spacingRight=4;overflow=hidden;points=[[0,0.5],[1,0.5]];portConstraint=eastwest;rotatable=0;whiteSpace=wrap;html=1;strokeColor=#D0CEE2;fontColor=#1A1A1A;labelBackgroundColor=none;" parent="Sbgd31AxWk2_8hyzhcKL-179" vertex="1">
          <mxGeometry y="120" width="140" height="30" as="geometry" />
        </mxCell>
        <mxCell id="Sbgd31AxWk2_8hyzhcKL-185" value="ERKENREZERVASYON" style="text;align=center;verticalAlign=middle;spacingLeft=4;spacingRight=4;overflow=hidden;points=[[0,0.5],[1,0.5]];portConstraint=eastwest;rotatable=0;whiteSpace=wrap;html=1;strokeColor=#D0CEE2;fontColor=#1A1A1A;labelBackgroundColor=none;" parent="Sbgd31AxWk2_8hyzhcKL-179" vertex="1">
          <mxGeometry y="150" width="140" height="30" as="geometry" />
        </mxCell>
        <mxCell id="Sbgd31AxWk2_8hyzhcKL-186" value="INDIRIMKODU" style="text;align=center;verticalAlign=middle;spacingLeft=4;spacingRight=4;overflow=hidden;points=[[0,0.5],[1,0.5]];portConstraint=eastwest;rotatable=0;whiteSpace=wrap;html=1;strokeColor=#D0CEE2;fontColor=#1A1A1A;labelBackgroundColor=none;" parent="Sbgd31AxWk2_8hyzhcKL-179" vertex="1">
          <mxGeometry y="180" width="140" height="30" as="geometry" />
        </mxCell>
        <mxCell id="Sbgd31AxWk2_8hyzhcKL-188" value="CheckOut" style="swimlane;fontStyle=0;childLayout=stackLayout;horizontal=1;startSize=30;horizontalStack=0;resizeParent=1;resizeParentMax=0;resizeLast=0;collapsible=1;marginBottom=0;whiteSpace=wrap;html=1;strokeColor=#D0CEE2;align=center;fontColor=#1A1A1A;labelBackgroundColor=none;fillColor=#5D7F99;" parent="1" vertex="1">
          <mxGeometry x="1290" y="1039" width="140" height="120" as="geometry" />
        </mxCell>
        <mxCell id="Sbgd31AxWk2_8hyzhcKL-189" value="MUSTERIID" style="text;align=center;verticalAlign=middle;spacingLeft=4;spacingRight=4;overflow=hidden;points=[[0,0.5],[1,0.5]];portConstraint=eastwest;rotatable=0;whiteSpace=wrap;html=1;strokeColor=#D0CEE2;fontColor=#1A1A1A;labelBackgroundColor=none;" parent="Sbgd31AxWk2_8hyzhcKL-188" vertex="1">
          <mxGeometry y="30" width="140" height="30" as="geometry" />
        </mxCell>
        <mxCell id="Sbgd31AxWk2_8hyzhcKL-190" value="Item 2" style="text;align=center;verticalAlign=middle;spacingLeft=4;spacingRight=4;overflow=hidden;points=[[0,0.5],[1,0.5]];portConstraint=eastwest;rotatable=0;whiteSpace=wrap;html=1;strokeColor=#D0CEE2;fontColor=#1A1A1A;labelBackgroundColor=none;" parent="Sbgd31AxWk2_8hyzhcKL-188" vertex="1">
          <mxGeometry y="60" width="140" height="30" as="geometry" />
        </mxCell>
        <mxCell id="Sbgd31AxWk2_8hyzhcKL-191" value="Item 3" style="text;align=center;verticalAlign=middle;spacingLeft=4;spacingRight=4;overflow=hidden;points=[[0,0.5],[1,0.5]];portConstraint=eastwest;rotatable=0;whiteSpace=wrap;html=1;strokeColor=#D0CEE2;fontColor=#1A1A1A;labelBackgroundColor=none;" parent="Sbgd31AxWk2_8hyzhcKL-188" vertex="1">
          <mxGeometry y="90" width="140" height="30" as="geometry" />
        </mxCell>
        <mxCell id="ycozCfA9_tvyJLzH0myJ-7" value="" style="endArrow=classic;startArrow=classic;html=1;rounded=0;entryX=1;entryY=0;entryDx=0;entryDy=0;exitX=1;exitY=0.5;exitDx=0;exitDy=0;strokeColor=#736CA8;align=center;fontColor=default;labelBackgroundColor=none;" parent="1" source="Sbgd31AxWk2_8hyzhcKL-89" target="Sbgd31AxWk2_8hyzhcKL-35" edge="1">
          <mxGeometry width="50" height="50" relative="1" as="geometry">
            <mxPoint x="550" y="59" as="sourcePoint" />
            <mxPoint x="600" y="9" as="targetPoint" />
            <Array as="points">
              <mxPoint x="1040" y="234" />
            </Array>
          </mxGeometry>
        </mxCell>
        <mxCell id="ycozCfA9_tvyJLzH0myJ-8" value="" style="endArrow=classic;startArrow=classic;html=1;rounded=0;exitX=0;exitY=0;exitDx=0;exitDy=0;entryX=1;entryY=0.5;entryDx=0;entryDy=0;strokeColor=#736CA8;align=center;fontColor=default;labelBackgroundColor=none;" parent="1" source="Sbgd31AxWk2_8hyzhcKL-95" target="Sbgd31AxWk2_8hyzhcKL-94" edge="1">
          <mxGeometry width="50" height="50" relative="1" as="geometry">
            <mxPoint x="860" y="89" as="sourcePoint" />
            <mxPoint x="910" y="39" as="targetPoint" />
            <Array as="points">
              <mxPoint x="1510" y="264" />
              <mxPoint x="1150" y="264" />
            </Array>
          </mxGeometry>
        </mxCell>
        <mxCell id="ycozCfA9_tvyJLzH0myJ-12" value="" style="endArrow=classic;startArrow=classic;html=1;rounded=0;entryX=0;entryY=0.5;entryDx=0;entryDy=0;exitX=0.007;exitY=0.045;exitDx=0;exitDy=0;exitPerimeter=0;strokeColor=#736CA8;align=center;fontColor=default;labelBackgroundColor=none;" parent="1" edge="1">
          <mxGeometry width="50" height="50" relative="1" as="geometry">
            <mxPoint x="41" y="758" as="sourcePoint" />
            <mxPoint x="40" y="704" as="targetPoint" />
            <Array as="points">
              <mxPoint x="20" y="760" />
              <mxPoint x="20" y="704" />
            </Array>
          </mxGeometry>
        </mxCell>
        <mxCell id="ycozCfA9_tvyJLzH0myJ-13" value="" style="endArrow=classic;startArrow=classic;html=1;rounded=0;entryX=1;entryY=0.5;entryDx=0;entryDy=0;exitX=0.993;exitY=0.125;exitDx=0;exitDy=0;exitPerimeter=0;strokeColor=#736CA8;align=center;fontColor=default;labelBackgroundColor=none;" parent="1" source="Sbgd31AxWk2_8hyzhcKL-42" target="Sbgd31AxWk2_8hyzhcKL-90" edge="1">
          <mxGeometry width="50" height="50" relative="1" as="geometry">
            <mxPoint x="1040" y="709" as="sourcePoint" />
            <mxPoint x="1090" y="659" as="targetPoint" />
            <Array as="points">
              <mxPoint x="1080" y="694" />
              <mxPoint x="1080" y="644" />
            </Array>
          </mxGeometry>
        </mxCell>
        <mxCell id="ycozCfA9_tvyJLzH0myJ-16" value="" style="endArrow=classic;startArrow=classic;html=1;rounded=0;entryX=0;entryY=0.5;entryDx=0;entryDy=0;exitX=0.25;exitY=0;exitDx=0;exitDy=0;strokeColor=#736CA8;align=center;fontColor=default;labelBackgroundColor=none;" parent="1" source="Sbgd31AxWk2_8hyzhcKL-161" target="Sbgd31AxWk2_8hyzhcKL-159" edge="1">
          <mxGeometry width="50" height="50" relative="1" as="geometry">
            <mxPoint x="520" y="539" as="sourcePoint" />
            <mxPoint x="570" y="489" as="targetPoint" />
            <Array as="points">
              <mxPoint x="545" y="494" />
            </Array>
          </mxGeometry>
        </mxCell>
        <mxCell id="ycozCfA9_tvyJLzH0myJ-17" value="" style="endArrow=classic;startArrow=classic;html=1;rounded=0;entryX=1;entryY=0.5;entryDx=0;entryDy=0;exitX=0.75;exitY=0;exitDx=0;exitDy=0;strokeColor=#736CA8;align=center;fontColor=default;labelBackgroundColor=none;" parent="1" source="Sbgd31AxWk2_8hyzhcKL-155" target="Sbgd31AxWk2_8hyzhcKL-160" edge="1">
          <mxGeometry width="50" height="50" relative="1" as="geometry">
            <mxPoint x="780" y="599" as="sourcePoint" />
            <mxPoint x="830" y="549" as="targetPoint" />
            <Array as="points">
              <mxPoint x="795" y="524" />
            </Array>
          </mxGeometry>
        </mxCell>
        <mxCell id="ycozCfA9_tvyJLzH0myJ-20" value="" style="endArrow=classic;startArrow=classic;html=1;rounded=0;exitX=1;exitY=0.5;exitDx=0;exitDy=0;entryX=-0.007;entryY=0.093;entryDx=0;entryDy=0;entryPerimeter=0;strokeColor=#736CA8;align=center;fontColor=default;labelBackgroundColor=none;" parent="1" source="ycozCfA9_tvyJLzH0myJ-18" target="Sbgd31AxWk2_8hyzhcKL-116" edge="1">
          <mxGeometry width="50" height="50" relative="1" as="geometry">
            <mxPoint x="940" y="509" as="sourcePoint" />
            <mxPoint x="990" y="459" as="targetPoint" />
            <Array as="points">
              <mxPoint x="1289" y="294" />
            </Array>
          </mxGeometry>
        </mxCell>
        <mxCell id="ycozCfA9_tvyJLzH0myJ-21" value="" style="endArrow=classic;startArrow=classic;html=1;rounded=0;entryX=0;entryY=0.5;entryDx=0;entryDy=0;exitX=1;exitY=0;exitDx=0;exitDy=0;strokeColor=#736CA8;align=center;fontColor=default;labelBackgroundColor=none;" parent="1" source="Sbgd31AxWk2_8hyzhcKL-120" target="Sbgd31AxWk2_8hyzhcKL-118" edge="1">
          <mxGeometry width="50" height="50" relative="1" as="geometry">
            <mxPoint x="1220" y="629" as="sourcePoint" />
            <mxPoint x="1270" y="579" as="targetPoint" />
            <Array as="points">
              <mxPoint x="1250" y="494" />
            </Array>
          </mxGeometry>
        </mxCell>
        <mxCell id="ycozCfA9_tvyJLzH0myJ-22" value="" style="endArrow=classic;startArrow=classic;html=1;rounded=0;entryX=0;entryY=0.5;entryDx=0;entryDy=0;exitX=-0.014;exitY=0.092;exitDx=0;exitDy=0;exitPerimeter=0;strokeColor=#736CA8;align=center;fontColor=default;labelBackgroundColor=none;" parent="1" source="Sbgd31AxWk2_8hyzhcKL-108" target="Sbgd31AxWk2_8hyzhcKL-117" edge="1">
          <mxGeometry width="50" height="50" relative="1" as="geometry">
            <mxPoint x="1260" y="659" as="sourcePoint" />
            <mxPoint x="1310" y="609" as="targetPoint" />
            <Array as="points">
              <mxPoint x="1270" y="741" />
              <mxPoint x="1270" y="524" />
            </Array>
          </mxGeometry>
        </mxCell>
        <mxCell id="ycozCfA9_tvyJLzH0myJ-23" value="" style="endArrow=classic;startArrow=classic;html=1;rounded=0;exitX=0;exitY=0;exitDx=0;exitDy=0;entryX=1;entryY=0.5;entryDx=0;entryDy=0;strokeColor=#736CA8;align=center;fontColor=default;labelBackgroundColor=none;" parent="1" source="Sbgd31AxWk2_8hyzhcKL-179" target="Sbgd31AxWk2_8hyzhcKL-119" edge="1">
          <mxGeometry width="50" height="50" relative="1" as="geometry">
            <mxPoint x="1460" y="629" as="sourcePoint" />
            <mxPoint x="1510" y="579" as="targetPoint" />
            <Array as="points">
              <mxPoint x="1470" y="554" />
            </Array>
          </mxGeometry>
        </mxCell>
        <mxCell id="ycozCfA9_tvyJLzH0myJ-24" value="" style="endArrow=classic;startArrow=classic;html=1;rounded=0;exitX=1.007;exitY=0.142;exitDx=0;exitDy=0;exitPerimeter=0;entryX=1;entryY=0.5;entryDx=0;entryDy=0;strokeColor=#736CA8;align=center;fontColor=default;labelBackgroundColor=none;" parent="1" source="Sbgd31AxWk2_8hyzhcKL-188" target="ycozCfA9_tvyJLzH0myJ-19" edge="1">
          <mxGeometry width="50" height="50" relative="1" as="geometry">
            <mxPoint x="1440" y="999" as="sourcePoint" />
            <mxPoint x="1490" y="949" as="targetPoint" />
            <Array as="points">
              <mxPoint x="1450" y="1056" />
              <mxPoint x="1450" y="584" />
            </Array>
          </mxGeometry>
        </mxCell>
        <mxCell id="4XEbmdWrYz3OEok1qJdr-1" value="" style="endArrow=none;html=1;rounded=0;strokeColor=#736CA8;fontColor=#1A1A1A;entryX=0;entryY=0.5;entryDx=0;entryDy=0;exitX=0;exitY=0;exitDx=0;exitDy=0;" edge="1" parent="1" source="Sbgd31AxWk2_8hyzhcKL-48" target="Sbgd31AxWk2_8hyzhcKL-15">
          <mxGeometry relative="1" as="geometry">
            <mxPoint x="570" y="144" as="sourcePoint" />
            <mxPoint x="770" y="150" as="targetPoint" />
            <Array as="points">
              <mxPoint x="590" y="144" />
            </Array>
          </mxGeometry>
        </mxCell>
        <mxCell id="4XEbmdWrYz3OEok1qJdr-2" value="M" style="resizable=0;html=1;whiteSpace=wrap;align=left;verticalAlign=bottom;strokeColor=#D0CEE2;fontColor=#1A1A1A;fillColor=#5D7F99;" connectable="0" vertex="1" parent="4XEbmdWrYz3OEok1qJdr-1">
          <mxGeometry x="-1" relative="1" as="geometry" />
        </mxCell>
        <mxCell id="4XEbmdWrYz3OEok1qJdr-3" value="N" style="resizable=0;html=1;whiteSpace=wrap;align=right;verticalAlign=bottom;strokeColor=#D0CEE2;fontColor=#1A1A1A;fillColor=#5D7F99;" connectable="0" vertex="1" parent="4XEbmdWrYz3OEok1qJdr-1">
          <mxGeometry x="1" relative="1" as="geometry" />
        </mxCell>
        <mxCell id="4XEbmdWrYz3OEok1qJdr-4" value="" style="endArrow=none;html=1;rounded=0;strokeColor=#736CA8;fontColor=#1A1A1A;entryX=0;entryY=0.5;entryDx=0;entryDy=0;exitX=0;exitY=0;exitDx=0;exitDy=0;" edge="1" parent="1" source="Sbgd31AxWk2_8hyzhcKL-16" target="Sbgd31AxWk2_8hyzhcKL-87">
          <mxGeometry relative="1" as="geometry">
            <mxPoint x="610" y="210" as="sourcePoint" />
            <mxPoint x="770" y="210" as="targetPoint" />
            <Array as="points">
              <mxPoint x="230" y="204" />
            </Array>
          </mxGeometry>
        </mxCell>
        <mxCell id="4XEbmdWrYz3OEok1qJdr-5" value="M" style="resizable=0;html=1;whiteSpace=wrap;align=left;verticalAlign=bottom;strokeColor=#D0CEE2;fontColor=#1A1A1A;fillColor=#5D7F99;" connectable="0" vertex="1" parent="4XEbmdWrYz3OEok1qJdr-4">
          <mxGeometry x="-1" relative="1" as="geometry" />
        </mxCell>
        <mxCell id="4XEbmdWrYz3OEok1qJdr-6" value="N" style="resizable=0;html=1;whiteSpace=wrap;align=right;verticalAlign=bottom;strokeColor=#D0CEE2;fontColor=#1A1A1A;fillColor=#5D7F99;" connectable="0" vertex="1" parent="4XEbmdWrYz3OEok1qJdr-4">
          <mxGeometry x="1" relative="1" as="geometry" />
        </mxCell>
        <mxCell id="4XEbmdWrYz3OEok1qJdr-7" value="" style="endArrow=none;html=1;rounded=0;strokeColor=#736CA8;fontColor=#1A1A1A;entryX=0;entryY=0.5;entryDx=0;entryDy=0;exitX=0;exitY=0;exitDx=0;exitDy=0;" edge="1" parent="1" source="Sbgd31AxWk2_8hyzhcKL-24" target="Sbgd31AxWk2_8hyzhcKL-86">
          <mxGeometry relative="1" as="geometry">
            <mxPoint x="40" y="174" as="sourcePoint" />
            <mxPoint x="770" y="180" as="targetPoint" />
            <Array as="points">
              <mxPoint x="40" y="174" />
            </Array>
          </mxGeometry>
        </mxCell>
        <mxCell id="4XEbmdWrYz3OEok1qJdr-8" value="M" style="resizable=0;html=1;whiteSpace=wrap;align=left;verticalAlign=bottom;strokeColor=#D0CEE2;fontColor=#1A1A1A;fillColor=#5D7F99;" connectable="0" vertex="1" parent="4XEbmdWrYz3OEok1qJdr-7">
          <mxGeometry x="-1" relative="1" as="geometry" />
        </mxCell>
        <mxCell id="4XEbmdWrYz3OEok1qJdr-9" value="N" style="resizable=0;html=1;whiteSpace=wrap;align=right;verticalAlign=bottom;strokeColor=#D0CEE2;fontColor=#1A1A1A;fillColor=#5D7F99;" connectable="0" vertex="1" parent="4XEbmdWrYz3OEok1qJdr-7">
          <mxGeometry x="1" relative="1" as="geometry" />
        </mxCell>
      </root>
    </mxGraphModel>
  </diagram>
</mxfile>
